<?xml version="1.0" encoding="us-ascii" standalone="no"?><svg xmlns="http://www.w3.org/2000/svg" xmlns:xlink="http://www.w3.org/1999/xlink" contentStyleType="text/css" height="489px" preserveAspectRatio="none" style="width:349px;height:489px;background:#FFFFFF;" version="1.1" viewBox="0 0 349 489" width="349px" zoomAndPan="magnify"><defs/><g><!--class Node--><g id="elem_Node"><rect codeLine="2" fill="#F1F1F1" height="100.8281" id="Node" rx="2.5" ry="2.5" style="stroke:#181818;stroke-width:0.5;" width="202" x="140.5" y="7"/><ellipse cx="220.75" cy="23" fill="#ADD1B2" rx="11" ry="11" style="stroke:#181818;stroke-width:1.0;"/><path d="M223.5156,18.875 Q223.6719,18.6563 223.8594,18.5469 Q224.0469,18.4375 224.2656,18.4375 Q224.6406,18.4375 224.875,18.6953 Q225.1094,18.9531 225.1094,19.5625 L225.1094,21.0156 Q225.1094,21.625 224.875,21.8906 Q224.6406,22.1563 224.2656,22.1563 Q223.9219,22.1563 223.7188,21.9531 Q223.5156,21.7656 223.4063,21.25 Q223.3594,20.8906 223.1719,20.7031 Q222.8438,20.3281 222.2344,20.1094 Q221.625,19.8906 221,19.8906 Q220.2344,19.8906 219.6016,20.2188 Q218.9688,20.5469 218.4766,21.2969 Q217.9844,22.0469 217.9844,23.0781 L217.9844,24.1719 Q217.9844,25.4063 218.875,26.2266 Q219.7656,27.0469 221.3594,27.0469 Q222.2969,27.0469 222.9531,26.7969 Q223.3438,26.6406 223.7656,26.2031 Q224.0313,25.9375 224.1797,25.8594 Q224.3281,25.7813 224.5313,25.7813 Q224.8594,25.7813 225.1172,26.0391 Q225.375,26.2969 225.375,26.6406 Q225.375,26.9844 225.0313,27.3906 Q224.5313,27.9688 223.7344,28.2969 Q222.6563,28.75 221.3594,28.75 Q219.8438,28.75 218.6406,28.125 Q217.6563,27.625 216.9688,26.5547 Q216.2813,25.4844 216.2813,24.2031 L216.2813,23.0469 Q216.2813,21.7188 216.8984,20.5703 Q217.5156,19.4219 218.6094,18.8047 Q219.7031,18.1875 220.9375,18.1875 Q221.6719,18.1875 222.3203,18.3516 Q222.9688,18.5156 223.5156,18.875 Z " fill="#000000"/><text fill="#000000" font-family="sans-serif" font-size="14" lengthAdjust="spacing" textLength="33" x="241.25" y="28.7285">Node</text><line style="stroke:#181818;stroke-width:0.5;" x1="141.5" x2="341.5" y1="39" y2="39"/><rect fill="none" height="6" style="stroke:#C82930;stroke-width:1.0;" width="6" x="148.5" y="50.3047"/><text fill="#000000" font-family="sans-serif" font-size="14" lengthAdjust="spacing" textLength="54" x="160.5" y="57.5332">id: string</text><rect fill="none" height="6" style="stroke:#C82930;stroke-width:1.0;" width="6" x="148.5" y="67.9141"/><text fill="#000000" font-family="sans-serif" font-size="14" lengthAdjust="spacing" textLength="176" x="160.5" y="75.1426">attributes: Map&lt;string, any&gt;</text><line style="stroke:#181818;stroke-width:0.5;" x1="141.5" x2="341.5" y1="82.2188" y2="82.2188"/><ellipse cx="151.5" cy="96.5234" fill="#84BE84" rx="3" ry="3" style="stroke:#038048;stroke-width:1.0;"/><text fill="#000000" font-family="sans-serif" font-size="14" lengthAdjust="spacing" textLength="135" x="160.5" y="100.752">constructor(id: string)</text></g><!--class Edge--><g id="elem_Edge"><rect codeLine="8" fill="#F1F1F1" height="118.4375" id="Edge" rx="2.5" ry="2.5" style="stroke:#181818;stroke-width:0.5;" width="277" x="7" y="168"/><ellipse cx="124.75" cy="184" fill="#ADD1B2" rx="11" ry="11" style="stroke:#181818;stroke-width:1.0;"/><path d="M127.5156,179.875 Q127.6719,179.6563 127.8594,179.5469 Q128.0469,179.4375 128.2656,179.4375 Q128.6406,179.4375 128.875,179.6953 Q129.1094,179.9531 129.1094,180.5625 L129.1094,182.0156 Q129.1094,182.625 128.875,182.8906 Q128.6406,183.1563 128.2656,183.1563 Q127.9219,183.1563 127.7188,182.9531 Q127.5156,182.7656 127.4063,182.25 Q127.3594,181.8906 127.1719,181.7031 Q126.8438,181.3281 126.2344,181.1094 Q125.625,180.8906 125,180.8906 Q124.2344,180.8906 123.6016,181.2188 Q122.9688,181.5469 122.4766,182.2969 Q121.9844,183.0469 121.9844,184.0781 L121.9844,185.1719 Q121.9844,186.4063 122.875,187.2266 Q123.7656,188.0469 125.3594,188.0469 Q126.2969,188.0469 126.9531,187.7969 Q127.3438,187.6406 127.7656,187.2031 Q128.0313,186.9375 128.1797,186.8594 Q128.3281,186.7813 128.5313,186.7813 Q128.8594,186.7813 129.1172,187.0391 Q129.375,187.2969 129.375,187.6406 Q129.375,187.9844 129.0313,188.3906 Q128.5313,188.9688 127.7344,189.2969 Q126.6563,189.75 125.3594,189.75 Q123.8438,189.75 122.6406,189.125 Q121.6563,188.625 120.9688,187.5547 Q120.2813,186.4844 120.2813,185.2031 L120.2813,184.0469 Q120.2813,182.7188 120.8984,181.5703 Q121.5156,180.4219 122.6094,179.8047 Q123.7031,179.1875 124.9375,179.1875 Q125.6719,179.1875 126.3203,179.3516 Q126.9688,179.5156 127.5156,179.875 Z " fill="#000000"/><text fill="#000000" font-family="sans-serif" font-size="14" lengthAdjust="spacing" textLength="33" x="145.25" y="189.7285">Edge</text><line style="stroke:#181818;stroke-width:0.5;" x1="8" x2="283" y1="200" y2="200"/><rect fill="none" height="6" style="stroke:#C82930;stroke-width:1.0;" width="6" x="15" y="211.3047"/><text fill="#000000" font-family="sans-serif" font-size="14" lengthAdjust="spacing" textLength="84" x="27" y="218.5332">source: Node</text><rect fill="none" height="6" style="stroke:#C82930;stroke-width:1.0;" width="6" x="15" y="228.9141"/><text fill="#000000" font-family="sans-serif" font-size="14" lengthAdjust="spacing" textLength="78" x="27" y="236.1426">target: Node</text><rect fill="none" height="6" style="stroke:#C82930;stroke-width:1.0;" width="6" x="15" y="246.5234"/><text fill="#000000" font-family="sans-serif" font-size="14" lengthAdjust="spacing" textLength="176" x="27" y="253.752">attributes: Map&lt;string, any&gt;</text><line style="stroke:#181818;stroke-width:0.5;" x1="8" x2="283" y1="260.8281" y2="260.8281"/><ellipse cx="18" cy="275.1328" fill="#84BE84" rx="3" ry="3" style="stroke:#038048;stroke-width:1.0;"/><text fill="#000000" font-family="sans-serif" font-size="14" lengthAdjust="spacing" textLength="251" x="27" y="279.3613">constructor(source: Node, target: Node)</text></g><!--class Graph--><g id="elem_Graph"><rect codeLine="15" fill="#F1F1F1" height="136.0469" id="Graph" rx="2.5" ry="2.5" style="stroke:#181818;stroke-width:0.5;" width="166" x="158.5" y="346"/><ellipse cx="217.25" cy="362" fill="#ADD1B2" rx="11" ry="11" style="stroke:#181818;stroke-width:1.0;"/><path d="M220.0156,357.875 Q220.1719,357.6563 220.3594,357.5469 Q220.5469,357.4375 220.7656,357.4375 Q221.1406,357.4375 221.375,357.6953 Q221.6094,357.9531 221.6094,358.5625 L221.6094,360.0156 Q221.6094,360.625 221.375,360.8906 Q221.1406,361.1563 220.7656,361.1563 Q220.4219,361.1563 220.2188,360.9531 Q220.0156,360.7656 219.9063,360.25 Q219.8594,359.8906 219.6719,359.7031 Q219.3438,359.3281 218.7344,359.1094 Q218.125,358.8906 217.5,358.8906 Q216.7344,358.8906 216.1016,359.2188 Q215.4688,359.5469 214.9766,360.2969 Q214.4844,361.0469 214.4844,362.0781 L214.4844,363.1719 Q214.4844,364.4063 215.375,365.2266 Q216.2656,366.0469 217.8594,366.0469 Q218.7969,366.0469 219.4531,365.7969 Q219.8438,365.6406 220.2656,365.2031 Q220.5313,364.9375 220.6797,364.8594 Q220.8281,364.7813 221.0313,364.7813 Q221.3594,364.7813 221.6172,365.0391 Q221.875,365.2969 221.875,365.6406 Q221.875,365.9844 221.5313,366.3906 Q221.0313,366.9688 220.2344,367.2969 Q219.1563,367.75 217.8594,367.75 Q216.3438,367.75 215.1406,367.125 Q214.1563,366.625 213.4688,365.5547 Q212.7813,364.4844 212.7813,363.2031 L212.7813,362.0469 Q212.7813,360.7188 213.3984,359.5703 Q214.0156,358.4219 215.1094,357.8047 Q216.2031,357.1875 217.4375,357.1875 Q218.1719,357.1875 218.8203,357.3516 Q219.4688,357.5156 220.0156,357.875 Z " fill="#000000"/><text fill="#000000" font-family="sans-serif" font-size="14" lengthAdjust="spacing" textLength="40" x="237.75" y="367.7285">Graph</text><line style="stroke:#181818;stroke-width:0.5;" x1="159.5" x2="323.5" y1="378" y2="378"/><rect fill="none" height="6" style="stroke:#C82930;stroke-width:1.0;" width="6" x="166.5" y="389.3047"/><text fill="#000000" font-family="sans-serif" font-size="14" lengthAdjust="spacing" textLength="88" x="178.5" y="396.5332">nodes: Node[]</text><rect fill="none" height="6" style="stroke:#C82930;stroke-width:1.0;" width="6" x="166.5" y="406.9141"/><text fill="#000000" font-family="sans-serif" font-size="14" lengthAdjust="spacing" textLength="88" x="178.5" y="414.1426">edges: Edge[]</text><line style="stroke:#181818;stroke-width:0.5;" x1="159.5" x2="323.5" y1="421.2188" y2="421.2188"/><ellipse cx="169.5" cy="435.5234" fill="#84BE84" rx="3" ry="3" style="stroke:#038048;stroke-width:1.0;"/><text fill="#000000" font-family="sans-serif" font-size="14" lengthAdjust="spacing" textLength="81" x="178.5" y="439.752">constructor()</text><ellipse cx="169.5" cy="453.1328" fill="#84BE84" rx="3" ry="3" style="stroke:#038048;stroke-width:1.0;"/><text fill="#000000" font-family="sans-serif" font-size="14" lengthAdjust="spacing" textLength="140" x="178.5" y="457.3613">addNode(node: Node)</text><ellipse cx="169.5" cy="470.7422" fill="#84BE84" rx="3" ry="3" style="stroke:#038048;stroke-width:1.0;"/><text fill="#000000" font-family="sans-serif" font-size="14" lengthAdjust="spacing" textLength="140" x="178.5" y="474.9707">addEdge(edge: Edge)</text></g><!--link Node to Edge--><g id="link_Node_Edge"><path codeLine="23" d="M212.96,108.3 C202.23,127.01 192.9338,143.2345 181.8138,162.6345 " fill="none" id="Node-to-Edge" style="stroke:#181818;stroke-width:1.0;"/><polygon fill="#181818" points="178.83,167.84,186.776,162.0209,181.3165,163.5021,179.8353,158.0426,178.83,167.84" style="stroke:#181818;stroke-width:1.0;"/></g><!--link Node to Graph--><g id="link_Node_Graph"><path codeLine="24" d="M275.52,108.08 C286,126.12 296.18,147.21 301.5,168 C314.51,218.81 312.98,234.83 301.5,286 C296.96,306.22 291.3776,321.5924 282.5376,340.3524 " fill="none" id="Node-to-Graph" style="stroke:#181818;stroke-width:1.0;"/><polygon fill="#181818" points="279.98,345.78,287.4348,339.3436,282.1113,341.257,280.198,335.9336,279.98,345.78" style="stroke:#181818;stroke-width:1.0;"/></g><!--link Edge to Graph--><g id="link_Edge_Graph"><path codeLine="25" d="M175.61,286.03 C185.45,305 193.7076,320.8937 203.8676,340.4837 " fill="none" id="Edge-to-Graph" style="stroke:#181818;stroke-width:1.0;"/><polygon fill="#181818" points="206.63,345.81,206.0373,335.979,204.328,341.3714,198.9356,339.6622,206.63,345.81" style="stroke:#181818;stroke-width:1.0;"/></g><!--SRC=[bP0z3i8m38NtdC9ZAzeBLAWROe8B80QJHA4IIghy31NYxYHkQ9eHR_vil_Ta_aBdu6g4X3U3M3rCOW3dxQHL1kXZzmXUkW4kE1_NOGUebv5M3i2DZZHmRsnJxblsOOoJmqceuk1Ci5mEP9kHHwkahz2VjdlHhjBRnJXRd9zR3Xs7RjsvtJEJCMXaAMzcjKsR6GgHxfgayRFP9kcwIKgh40MW7_VzIAHqb8ZHUqhx1G00]--></g></svg>