<?xml version="1.0" encoding="us-ascii" standalone="no"?><svg xmlns="http://www.w3.org/2000/svg" xmlns:xlink="http://www.w3.org/1999/xlink" contentStyleType="text/css" height="469px" preserveAspectRatio="none" style="width:484px;height:469px;background:#FFFFFF;" version="1.1" viewBox="0 0 484 469" width="484px" zoomAndPan="magnify"><defs/><g><!--class Task--><g id="elem_Task"><rect codeLine="2" fill="#F1F1F1" height="259.3125" id="Task" rx="2.5" ry="2.5" style="stroke:#181818;stroke-width:0.5;" width="470" x="7" y="203"/><ellipse cx="222.25" cy="219" fill="#ADD1B2" rx="11" ry="11" style="stroke:#181818;stroke-width:1.0;"/><path d="M225.0156,214.875 Q225.1719,214.6563 225.3594,214.5469 Q225.5469,214.4375 225.7656,214.4375 Q226.1406,214.4375 226.375,214.6953 Q226.6094,214.9531 226.6094,215.5625 L226.6094,217.0156 Q226.6094,217.625 226.375,217.8906 Q226.1406,218.1563 225.7656,218.1563 Q225.4219,218.1563 225.2188,217.9531 Q225.0156,217.7656 224.9063,217.25 Q224.8594,216.8906 224.6719,216.7031 Q224.3438,216.3281 223.7344,216.1094 Q223.125,215.8906 222.5,215.8906 Q221.7344,215.8906 221.1016,216.2188 Q220.4688,216.5469 219.9766,217.2969 Q219.4844,218.0469 219.4844,219.0781 L219.4844,220.1719 Q219.4844,221.4063 220.375,222.2266 Q221.2656,223.0469 222.8594,223.0469 Q223.7969,223.0469 224.4531,222.7969 Q224.8438,222.6406 225.2656,222.2031 Q225.5313,221.9375 225.6797,221.8594 Q225.8281,221.7813 226.0313,221.7813 Q226.3594,221.7813 226.6172,222.0391 Q226.875,222.2969 226.875,222.6406 Q226.875,222.9844 226.5313,223.3906 Q226.0313,223.9688 225.2344,224.2969 Q224.1563,224.75 222.8594,224.75 Q221.3438,224.75 220.1406,224.125 Q219.1563,223.625 218.4688,222.5547 Q217.7813,221.4844 217.7813,220.2031 L217.7813,219.0469 Q217.7813,217.7188 218.3984,216.5703 Q219.0156,215.4219 220.1094,214.8047 Q221.2031,214.1875 222.4375,214.1875 Q223.1719,214.1875 223.8203,214.3516 Q224.4688,214.5156 225.0156,214.875 Z " fill="#000000"/><text fill="#000000" font-family="sans-serif" font-size="14" lengthAdjust="spacing" textLength="31" x="242.75" y="224.7285">Task</text><line style="stroke:#181818;stroke-width:0.5;" x1="8" x2="476" y1="235" y2="235"/><rect fill="none" height="6" style="stroke:#C82930;stroke-width:1.0;" width="6" x="15" y="246.3047"/><text fill="#000000" font-family="sans-serif" font-size="14" lengthAdjust="spacing" textLength="78" x="27" y="253.5332">name: string</text><rect fill="none" height="6" style="stroke:#C82930;stroke-width:1.0;" width="6" x="15" y="263.9141"/><text fill="#000000" font-family="sans-serif" font-size="14" lengthAdjust="spacing" textLength="108" x="27" y="271.1426">duration: number</text><rect fill="none" height="6" style="stroke:#C82930;stroke-width:1.0;" width="6" x="15" y="281.5234"/><text fill="#000000" font-family="sans-serif" font-size="14" lengthAdjust="spacing" textLength="132" x="27" y="288.752">earliestStart: number</text><rect fill="none" height="6" style="stroke:#C82930;stroke-width:1.0;" width="6" x="15" y="299.1328"/><text fill="#000000" font-family="sans-serif" font-size="14" lengthAdjust="spacing" textLength="127" x="27" y="306.3613">earliestEnd: number</text><rect fill="none" height="6" style="stroke:#C82930;stroke-width:1.0;" width="6" x="15" y="316.7422"/><text fill="#000000" font-family="sans-serif" font-size="14" lengthAdjust="spacing" textLength="120" x="27" y="323.9707">latestStart: number</text><rect fill="none" height="6" style="stroke:#C82930;stroke-width:1.0;" width="6" x="15" y="334.3516"/><text fill="#000000" font-family="sans-serif" font-size="14" lengthAdjust="spacing" textLength="115" x="27" y="341.5801">latestEnd: number</text><rect fill="none" height="6" style="stroke:#C82930;stroke-width:1.0;" width="6" x="15" y="351.9609"/><text fill="#000000" font-family="sans-serif" font-size="14" lengthAdjust="spacing" textLength="99" x="27" y="359.1895">resource: string</text><rect fill="none" height="6" style="stroke:#C82930;stroke-width:1.0;" width="6" x="15" y="369.5703"/><text fill="#000000" font-family="sans-serif" font-size="14" lengthAdjust="spacing" textLength="133" x="27" y="376.7988">predecessors: Task[]</text><rect fill="none" height="6" style="stroke:#C82930;stroke-width:1.0;" width="6" x="15" y="387.1797"/><text fill="#000000" font-family="sans-serif" font-size="14" lengthAdjust="spacing" textLength="118" x="27" y="394.4082">successors: Task[]</text><line style="stroke:#181818;stroke-width:0.5;" x1="8" x2="476" y1="401.4844" y2="401.4844"/><ellipse cx="18" cy="415.7891" fill="#84BE84" rx="3" ry="3" style="stroke:#038048;stroke-width:1.0;"/><text fill="#000000" font-family="sans-serif" font-size="14" lengthAdjust="spacing" textLength="444" x="27" y="420.0176">constructor(id: string, name: string, duration: number, resource: string)</text><ellipse cx="18" cy="433.3984" fill="#84BE84" rx="3" ry="3" style="stroke:#038048;stroke-width:1.0;"/><text fill="#000000" font-family="sans-serif" font-size="14" lengthAdjust="spacing" textLength="179" x="27" y="437.627">addPredecessor(task: Task)</text><ellipse cx="18" cy="451.0078" fill="#84BE84" rx="3" ry="3" style="stroke:#038048;stroke-width:1.0;"/><text fill="#000000" font-family="sans-serif" font-size="14" lengthAdjust="spacing" textLength="165" x="27" y="455.2363">addSuccessor(task: Task)</text></g><!--class Pert--><g id="elem_Pert"><rect codeLine="17" fill="#F1F1F1" height="136.0469" id="Pert" rx="2.5" ry="2.5" style="stroke:#181818;stroke-width:0.5;" width="211" x="136.5" y="7"/><ellipse cx="224.75" cy="23" fill="#ADD1B2" rx="11" ry="11" style="stroke:#181818;stroke-width:1.0;"/><path d="M227.5156,18.875 Q227.6719,18.6563 227.8594,18.5469 Q228.0469,18.4375 228.2656,18.4375 Q228.6406,18.4375 228.875,18.6953 Q229.1094,18.9531 229.1094,19.5625 L229.1094,21.0156 Q229.1094,21.625 228.875,21.8906 Q228.6406,22.1563 228.2656,22.1563 Q227.9219,22.1563 227.7188,21.9531 Q227.5156,21.7656 227.4063,21.25 Q227.3594,20.8906 227.1719,20.7031 Q226.8438,20.3281 226.2344,20.1094 Q225.625,19.8906 225,19.8906 Q224.2344,19.8906 223.6016,20.2188 Q222.9688,20.5469 222.4766,21.2969 Q221.9844,22.0469 221.9844,23.0781 L221.9844,24.1719 Q221.9844,25.4063 222.875,26.2266 Q223.7656,27.0469 225.3594,27.0469 Q226.2969,27.0469 226.9531,26.7969 Q227.3438,26.6406 227.7656,26.2031 Q228.0313,25.9375 228.1797,25.8594 Q228.3281,25.7813 228.5313,25.7813 Q228.8594,25.7813 229.1172,26.0391 Q229.375,26.2969 229.375,26.6406 Q229.375,26.9844 229.0313,27.3906 Q228.5313,27.9688 227.7344,28.2969 Q226.6563,28.75 225.3594,28.75 Q223.8438,28.75 222.6406,28.125 Q221.6563,27.625 220.9688,26.5547 Q220.2813,25.4844 220.2813,24.2031 L220.2813,23.0469 Q220.2813,21.7188 220.8984,20.5703 Q221.5156,19.4219 222.6094,18.8047 Q223.7031,18.1875 224.9375,18.1875 Q225.6719,18.1875 226.3203,18.3516 Q226.9688,18.5156 227.5156,18.875 Z " fill="#000000"/><text fill="#000000" font-family="sans-serif" font-size="14" lengthAdjust="spacing" textLength="26" x="245.25" y="28.7285">Pert</text><line style="stroke:#181818;stroke-width:0.5;" x1="137.5" x2="346.5" y1="39" y2="39"/><rect fill="none" height="6" style="stroke:#C82930;stroke-width:1.0;" width="6" x="144.5" y="50.3047"/><text fill="#000000" font-family="sans-serif" font-size="14" lengthAdjust="spacing" textLength="80" x="156.5" y="57.5332">tasks: Task[]</text><line style="stroke:#181818;stroke-width:0.5;" x1="137.5" x2="346.5" y1="64.6094" y2="64.6094"/><ellipse cx="147.5" cy="78.9141" fill="#84BE84" rx="3" ry="3" style="stroke:#038048;stroke-width:1.0;"/><text fill="#000000" font-family="sans-serif" font-size="14" lengthAdjust="spacing" textLength="161" x="156.5" y="83.1426">constructor(tasks: Task[])</text><ellipse cx="147.5" cy="96.5234" fill="#84BE84" rx="3" ry="3" style="stroke:#038048;stroke-width:1.0;"/><text fill="#000000" font-family="sans-serif" font-size="14" lengthAdjust="spacing" textLength="185" x="156.5" y="100.752">calculateEarliestTimes(): void</text><ellipse cx="147.5" cy="114.1328" fill="#84BE84" rx="3" ry="3" style="stroke:#038048;stroke-width:1.0;"/><text fill="#000000" font-family="sans-serif" font-size="14" lengthAdjust="spacing" textLength="177" x="156.5" y="118.3613">calculateLatestTimes(): void</text><ellipse cx="147.5" cy="131.7422" fill="#84BE84" rx="3" ry="3" style="stroke:#038048;stroke-width:1.0;"/><text fill="#000000" font-family="sans-serif" font-size="14" lengthAdjust="spacing" textLength="132" x="156.5" y="135.9707">generateDot(): string</text></g><!--link Pert to Task--><g id="link_Pert_Task"><path codeLine="26" d="M242,143.13 C242,161.46 242,175.97 242,196.51 " fill="none" id="Pert-to-Task" style="stroke:#181818;stroke-width:1.0;"/><polygon fill="#181818" points="242,202.51,246,193.51,242,197.51,238,193.51,242,202.51" style="stroke:#181818;stroke-width:1.0;"/></g><!--SRC=[VP2nRiCm34HtVOL61xL_m4EdPkiG8Dc23Yn5149jgI2fBaN_lR8YjxMTLAFUaNSy7434da3UxAUn-NKsm4Yz5MKVBlNB9GRrCVGsfF6Lk7uJyE19zAZ0UeVjWrkH0VJEp9Li9vWa9iPrgdScHqWYaQKlDvnVAfA4jy23nHZoZeGQkV5kNjWkZcutzxQR2Bkw3vmx_CPeD7jT7Vy8ZdEO1Vuo1alv1sBzANzI_9TvmMSFX07JLDw-bdxo8qcpw-r7z6ujUYujtv9SA50-d9wYJgIMdOEQah7h7ekn-GO0]--></g></svg>