<svg xmlns="http://www.w3.org/2000/svg" xmlns:xlink="http://www.w3.org/1999/xlink" contentStyleType="text/css" height="843px" preserveAspectRatio="none" style="width:704px;height:843px;background:#FFFFFF;" version="1.1" viewBox="0 0 704 843" width="704px" zoomAndPan="magnify"><defs/><g><!--class Node--><g id="elem_Node"><rect codeLine="1" fill="#F1F1F1" height="96.8906" id="Node" rx="2.5" ry="2.5" style="stroke:#181818;stroke-width:0.5;" width="231.3584" x="7" y="15"/><ellipse cx="100.1602" cy="31" fill="#ADD1B2" rx="11" ry="11" style="stroke:#181818;stroke-width:1;"/><path d="M103.1289,36.6406 Q102.5508,36.9375 101.9102,37.0781 Q101.2695,37.2344 100.5664,37.2344 Q98.0664,37.2344 96.7383,35.5938 Q95.4258,33.9375 95.4258,30.8125 Q95.4258,27.6875 96.7383,26.0313 Q98.0664,24.375 100.5664,24.375 Q101.2695,24.375 101.9102,24.5313 Q102.5664,24.6875 103.1289,24.9844 L103.1289,27.7031 Q102.5039,27.125 101.9102,26.8594 Q101.3164,26.5781 100.6914,26.5781 Q99.3477,26.5781 98.6602,27.6563 Q97.9727,28.7188 97.9727,30.8125 Q97.9727,32.9063 98.6602,33.9844 Q99.3477,35.0469 100.6914,35.0469 Q101.3164,35.0469 101.9102,34.7813 Q102.5039,34.5 103.1289,33.9219 L103.1289,36.6406 Z " fill="#000000"/><text fill="#000000" font-family="sans-serif" font-size="14" lengthAdjust="spacing" textLength="36.5381" x="120.6602" y="35.8467">Node</text><line style="stroke:#181818;stroke-width:0.5;" x1="8" x2="237.3584" y1="47" y2="47"/><rect fill="none" height="6" style="stroke:#C82930;stroke-width:1;" width="6" x="15" y="57.6484"/><text fill="#000000" font-family="sans-serif" font-size="14" lengthAdjust="spacing" textLength="62.1318" x="27" y="63.9951">id: string</text><rect fill="none" height="6" style="stroke:#C82930;stroke-width:1;" width="6" x="15" y="73.9453"/><text fill="#000000" font-family="sans-serif" font-size="14" lengthAdjust="spacing" textLength="205.3584" x="27" y="80.292">attributes: Map&lt;string, any&gt;</text><line style="stroke:#181818;stroke-width:0.5;" x1="8" x2="237.3584" y1="87.5938" y2="87.5938"/><ellipse cx="18" cy="101.2422" fill="#84BE84" rx="3" ry="3" style="stroke:#038048;stroke-width:1;"/><text fill="#000000" font-family="sans-serif" font-size="14" lengthAdjust="spacing" textLength="153.1113" x="27" y="104.5889">constructor(id: string)</text></g><!--class Edge--><g id="elem_Edge"><rect codeLine="7" fill="#F1F1F1" height="113.1875" id="Edge" rx="2.5" ry="2.5" style="stroke:#181818;stroke-width:0.5;" width="306.9023" x="330" y="7"/><ellipse cx="461.585" cy="23" fill="#ADD1B2" rx="11" ry="11" style="stroke:#181818;stroke-width:1;"/><path d="M464.5537,28.6406 Q463.9756,28.9375 463.335,29.0781 Q462.6943,29.2344 461.9912,29.2344 Q459.4912,29.2344 458.1631,27.5938 Q456.8506,25.9375 456.8506,22.8125 Q456.8506,19.6875 458.1631,18.0313 Q459.4912,16.375 461.9912,16.375 Q462.6943,16.375 463.335,16.5313 Q463.9912,16.6875 464.5537,16.9844 L464.5537,19.7031 Q463.9287,19.125 463.335,18.8594 Q462.7412,18.5781 462.1162,18.5781 Q460.7725,18.5781 460.085,19.6563 Q459.3975,20.7188 459.3975,22.8125 Q459.3975,24.9063 460.085,25.9844 Q460.7725,27.0469 462.1162,27.0469 Q462.7412,27.0469 463.335,26.7813 Q463.9287,26.5 464.5537,25.9219 L464.5537,28.6406 Z " fill="#000000"/><text fill="#000000" font-family="sans-serif" font-size="14" lengthAdjust="spacing" textLength="35.2324" x="482.085" y="27.8467">Edge</text><line style="stroke:#181818;stroke-width:0.5;" x1="331" x2="635.9023" y1="39" y2="39"/><rect fill="none" height="6" style="stroke:#C82930;stroke-width:1;" width="6" x="338" y="49.6484"/><text fill="#000000" font-family="sans-serif" font-size="14" lengthAdjust="spacing" textLength="92.5039" x="350" y="55.9951">source: Node</text><rect fill="none" height="6" style="stroke:#C82930;stroke-width:1;" width="6" x="338" y="65.9453"/><text fill="#000000" font-family="sans-serif" font-size="14" lengthAdjust="spacing" textLength="88.5186" x="350" y="72.292">target: Node</text><rect fill="none" height="6" style="stroke:#C82930;stroke-width:1;" width="6" x="338" y="82.2422"/><text fill="#000000" font-family="sans-serif" font-size="14" lengthAdjust="spacing" textLength="205.3584" x="350" y="88.5889">attributes: Map&lt;string, any&gt;</text><line style="stroke:#181818;stroke-width:0.5;" x1="331" x2="635.9023" y1="95.8906" y2="95.8906"/><ellipse cx="341" cy="109.5391" fill="#84BE84" rx="3" ry="3" style="stroke:#038048;stroke-width:1;"/><text fill="#000000" font-family="sans-serif" font-size="14" lengthAdjust="spacing" textLength="280.9023" x="350" y="112.8857">constructor(source: Node, target: Node)</text></g><!--class Graph--><g id="elem_Graph"><rect codeLine="14" fill="#F1F1F1" height="129.4844" id="Graph" rx="2.5" ry="2.5" style="stroke:#181818;stroke-width:0.5;" width="180.458" x="212.5" y="197"/><ellipse cx="277.0073" cy="213" fill="#ADD1B2" rx="11" ry="11" style="stroke:#181818;stroke-width:1;"/><path d="M279.9761,218.6406 Q279.3979,218.9375 278.7573,219.0781 Q278.1167,219.2344 277.4136,219.2344 Q274.9136,219.2344 273.5854,217.5938 Q272.2729,215.9375 272.2729,212.8125 Q272.2729,209.6875 273.5854,208.0313 Q274.9136,206.375 277.4136,206.375 Q278.1167,206.375 278.7573,206.5313 Q279.4136,206.6875 279.9761,206.9844 L279.9761,209.7031 Q279.3511,209.125 278.7573,208.8594 Q278.1636,208.5781 277.5386,208.5781 Q276.1948,208.5781 275.5073,209.6563 Q274.8198,210.7188 274.8198,212.8125 Q274.8198,214.9063 275.5073,215.9844 Q276.1948,217.0469 277.5386,217.0469 Q278.1636,217.0469 278.7573,216.7813 Q279.3511,216.5 279.9761,215.9219 L279.9761,218.6406 Z " fill="#000000"/><text fill="#000000" font-family="sans-serif" font-size="14" lengthAdjust="spacing" textLength="42.9434" x="297.5073" y="217.8467">Graph</text><line style="stroke:#181818;stroke-width:0.5;" x1="213.5" x2="391.958" y1="229" y2="229"/><rect fill="none" height="6" style="stroke:#C82930;stroke-width:1;" width="6" x="220.5" y="239.6484"/><text fill="#000000" font-family="sans-serif" font-size="14" lengthAdjust="spacing" textLength="98.8613" x="232.5" y="245.9951">nodes: Node[]</text><rect fill="none" height="6" style="stroke:#C82930;stroke-width:1;" width="6" x="220.5" y="255.9453"/><text fill="#000000" font-family="sans-serif" font-size="14" lengthAdjust="spacing" textLength="97.6172" x="232.5" y="262.292">edges: Edge[]</text><line style="stroke:#181818;stroke-width:0.5;" x1="213.5" x2="391.958" y1="269.5938" y2="269.5938"/><ellipse cx="223.5" cy="283.2422" fill="#84BE84" rx="3" ry="3" style="stroke:#038048;stroke-width:1;"/><text fill="#000000" font-family="sans-serif" font-size="14" lengthAdjust="spacing" textLength="90.9795" x="232.5" y="286.5889">constructor()</text><ellipse cx="223.5" cy="299.5391" fill="#84BE84" rx="3" ry="3" style="stroke:#038048;stroke-width:1;"/><text fill="#000000" font-family="sans-serif" font-size="14" lengthAdjust="spacing" textLength="154.458" x="232.5" y="302.8857">addNode(node: Node)</text><ellipse cx="223.5" cy="315.8359" fill="#84BE84" rx="3" ry="3" style="stroke:#038048;stroke-width:1;"/><text fill="#000000" font-family="sans-serif" font-size="14" lengthAdjust="spacing" textLength="151.9082" x="232.5" y="319.1826">addEdge(edge: Edge)</text></g><!--class Task--><g id="elem_Task"><rect codeLine="22" fill="#F1F1F1" height="243.5625" id="Task" rx="2.5" ry="2.5" style="stroke:#181818;stroke-width:0.5;" width="528.1133" x="38.5" y="593"/><ellipse cx="282.0405" cy="609" fill="#ADD1B2" rx="11" ry="11" style="stroke:#181818;stroke-width:1;"/><path d="M285.0093,614.6406 Q284.4312,614.9375 283.7905,615.0781 Q283.1499,615.2344 282.4468,615.2344 Q279.9468,615.2344 278.6187,613.5938 Q277.3062,611.9375 277.3062,608.8125 Q277.3062,605.6875 278.6187,604.0313 Q279.9468,602.375 282.4468,602.375 Q283.1499,602.375 283.7905,602.5313 Q284.4468,602.6875 285.0093,602.9844 L285.0093,605.7031 Q284.3843,605.125 283.7905,604.8594 Q283.1968,604.5781 282.5718,604.5781 Q281.228,604.5781 280.5405,605.6563 Q279.853,606.7188 279.853,608.8125 Q279.853,610.9063 280.5405,611.9844 Q281.228,613.0469 282.5718,613.0469 Q283.1968,613.0469 283.7905,612.7813 Q284.3843,612.5 285.0093,611.9219 L285.0093,614.6406 Z " fill="#000000"/><text fill="#000000" font-family="sans-serif" font-size="14" lengthAdjust="spacing" textLength="32.5322" x="302.5405" y="613.8467">Task</text><line style="stroke:#181818;stroke-width:0.5;" x1="39.5" x2="565.6133" y1="625" y2="625"/><rect fill="none" height="6" style="stroke:#C82930;stroke-width:1;" width="6" x="46.5" y="635.6484"/><text fill="#000000" font-family="sans-serif" font-size="14" lengthAdjust="spacing" textLength="89.0586" x="58.5" y="641.9951">name: string</text><rect fill="none" height="6" style="stroke:#C82930;stroke-width:1;" width="6" x="46.5" y="651.9453"/><text fill="#000000" font-family="sans-serif" font-size="14" lengthAdjust="spacing" textLength="122.7188" x="58.5" y="658.292">duration: number</text><rect fill="none" height="6" style="stroke:#C82930;stroke-width:1;" width="6" x="46.5" y="668.2422"/><text fill="#000000" font-family="sans-serif" font-size="14" lengthAdjust="spacing" textLength="150.1309" x="58.5" y="674.5889">earliestStart: number</text><rect fill="none" height="6" style="stroke:#C82930;stroke-width:1;" width="6" x="46.5" y="684.5391"/><text fill="#000000" font-family="sans-serif" font-size="14" lengthAdjust="spacing" textLength="142.5361" x="58.5" y="690.8857">earliestEnd: number</text><rect fill="none" height="6" style="stroke:#C82930;stroke-width:1;" width="6" x="46.5" y="700.8359"/><text fill="#000000" font-family="sans-serif" font-size="14" lengthAdjust="spacing" textLength="137.3613" x="58.5" y="707.1826">latestStart: number</text><rect fill="none" height="6" style="stroke:#C82930;stroke-width:1;" width="6" x="46.5" y="717.1328"/><text fill="#000000" font-family="sans-serif" font-size="14" lengthAdjust="spacing" textLength="129.7666" x="58.5" y="723.4795">latestEnd: number</text><rect fill="none" height="6" style="stroke:#C82930;stroke-width:1;" width="6" x="46.5" y="733.4297"/><text fill="#000000" font-family="sans-serif" font-size="14" lengthAdjust="spacing" textLength="110.5234" x="58.5" y="739.7764">resource: string</text><rect fill="none" height="6" style="stroke:#C82930;stroke-width:1;" width="6" x="46.5" y="749.7266"/><text fill="#000000" font-family="sans-serif" font-size="14" lengthAdjust="spacing" textLength="145.8926" x="58.5" y="756.0732">predecessors: Task[]</text><rect fill="none" height="6" style="stroke:#C82930;stroke-width:1;" width="6" x="46.5" y="766.0234"/><text fill="#000000" font-family="sans-serif" font-size="14" lengthAdjust="spacing" textLength="129.001" x="58.5" y="772.3701">successors: Task[]</text><line style="stroke:#181818;stroke-width:0.5;" x1="39.5" x2="565.6133" y1="779.6719" y2="779.6719"/><ellipse cx="49.5" cy="793.3203" fill="#84BE84" rx="3" ry="3" style="stroke:#038048;stroke-width:1;"/><text fill="#000000" font-family="sans-serif" font-size="14" lengthAdjust="spacing" textLength="502.1133" x="58.5" y="796.667">constructor(id: string, name: string, duration: number, resource: string)</text><ellipse cx="49.5" cy="809.6172" fill="#84BE84" rx="3" ry="3" style="stroke:#038048;stroke-width:1;"/><text fill="#000000" font-family="sans-serif" font-size="14" lengthAdjust="spacing" textLength="193.9766" x="58.5" y="812.9639">addPredecessor(task: Task)</text><ellipse cx="49.5" cy="825.9141" fill="#84BE84" rx="3" ry="3" style="stroke:#038048;stroke-width:1;"/><text fill="#000000" font-family="sans-serif" font-size="14" lengthAdjust="spacing" textLength="179.1221" x="58.5" y="829.2607">addSuccessor(task: Task)</text></g><!--class Pert--><g id="elem_Pert"><rect codeLine="37" fill="#F1F1F1" height="129.4844" id="Pert" rx="2.5" ry="2.5" style="stroke:#181818;stroke-width:0.5;" width="233.3682" x="186" y="387"/><ellipse cx="284.2837" cy="403" fill="#ADD1B2" rx="11" ry="11" style="stroke:#181818;stroke-width:1;"/><path d="M287.2524,408.6406 Q286.6743,408.9375 286.0337,409.0781 Q285.3931,409.2344 284.6899,409.2344 Q282.1899,409.2344 280.8618,407.5938 Q279.5493,405.9375 279.5493,402.8125 Q279.5493,399.6875 280.8618,398.0313 Q282.1899,396.375 284.6899,396.375 Q285.3931,396.375 286.0337,396.5313 Q286.6899,396.6875 287.2524,396.9844 L287.2524,399.7031 Q286.6274,399.125 286.0337,398.8594 Q285.4399,398.5781 284.8149,398.5781 Q283.4712,398.5781 282.7837,399.6563 Q282.0962,400.7188 282.0962,402.8125 Q282.0962,404.9063 282.7837,405.9844 Q283.4712,407.0469 284.8149,407.0469 Q285.4399,407.0469 286.0337,406.7813 Q286.6274,406.5 287.2524,405.9219 L287.2524,408.6406 Z " fill="#000000"/><text fill="#000000" font-family="sans-serif" font-size="14" lengthAdjust="spacing" textLength="28.3008" x="304.7837" y="407.8467">Pert</text><line style="stroke:#181818;stroke-width:0.5;" x1="187" x2="418.3682" y1="419" y2="419"/><rect fill="none" height="6" style="stroke:#C82930;stroke-width:1;" width="6" x="194" y="429.6484"/><text fill="#000000" font-family="sans-serif" font-size="14" lengthAdjust="spacing" textLength="89.3867" x="206" y="435.9951">tasks: Task[]</text><line style="stroke:#181818;stroke-width:0.5;" x1="187" x2="418.3682" y1="443.2969" y2="443.2969"/><ellipse cx="197" cy="456.9453" fill="#84BE84" rx="3" ry="3" style="stroke:#038048;stroke-width:1;"/><text fill="#000000" font-family="sans-serif" font-size="14" lengthAdjust="spacing" textLength="180.3662" x="206" y="460.292">constructor(tasks: Task[])</text><ellipse cx="197" cy="473.2422" fill="#84BE84" rx="3" ry="3" style="stroke:#038048;stroke-width:1;"/><text fill="#000000" font-family="sans-serif" font-size="14" lengthAdjust="spacing" textLength="207.3682" x="206" y="476.5889">calculateEarliestTimes(): void</text><ellipse cx="197" cy="489.5391" fill="#84BE84" rx="3" ry="3" style="stroke:#038048;stroke-width:1;"/><text fill="#000000" font-family="sans-serif" font-size="14" lengthAdjust="spacing" textLength="198.2764" x="206" y="492.8857">calculateLatestTimes(): void</text><ellipse cx="197" cy="505.8359" fill="#84BE84" rx="3" ry="3" style="stroke:#038048;stroke-width:1;"/><text fill="#000000" font-family="sans-serif" font-size="14" lengthAdjust="spacing" textLength="148.5381" x="206" y="509.1826">generateDot(): string</text></g><!--link Node to Edge--><g id="link_Node_Edge"><path codeLine="45" d="M238.21,63.5 C267.39,63.5 299.18,63.5 329.9,63.5 " fill="none" id="Node-Edge" style="stroke:#181818;stroke-width:1;"/><polygon fill="#000000" points="255,52.0664,264.0451,55.0053,264.0451,49.1275,255,52.0664" style="stroke:#000000;stroke-width:1;"/><text fill="#000000" font-family="sans-serif" font-size="13" lengthAdjust="spacing" textLength="43.4561" x="269" y="56.5669">source</text><text fill="#000000" font-family="sans-serif" font-size="13" lengthAdjust="spacing" textLength="8.271" x="246.2501" y="60.0711">1</text><text fill="#000000" font-family="sans-serif" font-size="13" lengthAdjust="spacing" textLength="23.0356" x="298.9449" y="75.9289">0..*</text></g><!--link Node to Edge--><g id="link_Node_Edge"><path codeLine="46" d="M238.3,81.83 C244.61,82.48 250.88,83.05 257,83.5 C280.52,85.24 305.4,85.08 329.73,83.81 " fill="none" id="Node-Edge-1" style="stroke:#181818;stroke-width:1;"/><polygon fill="#000000" points="257.0012,74.9582,265.9805,78.0922,266.1078,72.2157,257.0012,74.9582" style="stroke:#000000;stroke-width:1;"/><text fill="#000000" font-family="sans-serif" font-size="13" lengthAdjust="spacing" textLength="39.7554" x="271" y="79.5669">target</text><text fill="#000000" font-family="sans-serif" font-size="13" lengthAdjust="spacing" textLength="8.271" x="246.3461" y="79.6327">1</text><text fill="#000000" font-family="sans-serif" font-size="13" lengthAdjust="spacing" textLength="23.0356" x="298.7666" y="97.2226">0..*</text></g><!--link Node to Graph--><g id="link_Node_Graph"><path codeLine="48" d="M166.3,112.2 C189.72,137.69 210.7332,160.5816 236.0432,188.1416 " fill="none" id="Node-to-Graph" style="stroke:#181818;stroke-width:1;"/><polygon fill="#181818" points="244.16,196.98,243.0477,189.8552,236.0432,188.1416,237.1555,195.2664,244.16,196.98" style="stroke:#181818;stroke-width:1;"/><polygon fill="#000000" points="214.118,154.8838,218.0715,163.5336,222.4007,159.5578,214.118,154.8838" style="stroke:#000000;stroke-width:1;"/><text fill="#000000" font-family="sans-serif" font-size="13" lengthAdjust="spacing" textLength="55.0278" x="226.5" y="163.0669">contains</text><text fill="#000000" font-family="sans-serif" font-size="13" lengthAdjust="spacing" textLength="23.0356" x="147.6186" y="131.835">1..*</text></g><!--link Edge to Graph--><g id="link_Edge_Graph"><path codeLine="49" d="M432.12,120.14 C410.06,144.02 392.3095,163.2425 369.4995,187.9525 " fill="none" id="Edge-to-Graph" style="stroke:#181818;stroke-width:1;"/><polygon fill="#181818" points="361.36,196.77,368.3689,195.0744,369.4995,187.9525,362.4906,189.6481,361.36,196.77" style="stroke:#181818;stroke-width:1;"/><polygon fill="#000000" points="412.8921,154.893,404.5966,159.5444,408.9149,163.5321,412.8921,154.893" style="stroke:#000000;stroke-width:1;"/><text fill="#000000" font-family="sans-serif" font-size="13" lengthAdjust="spacing" textLength="55.0278" x="418.5" y="163.0669">contains</text><text fill="#000000" font-family="sans-serif" font-size="13" lengthAdjust="spacing" textLength="23.0356" x="401.072" y="140.4213">0..*</text></g><!--reverse link Graph to Pert--><g id="link_Graph_Pert"><path codeLine="50" d="M302.5,344.15 C302.5,363.75 302.5,367.32 302.5,386.92 " fill="none" id="Graph-backto-Pert" style="stroke:#181818;stroke-width:1;"/><polygon fill="none" points="302.5,326.15,296.5,344.15,308.5,344.15,302.5,326.15" style="stroke:#181818;stroke-width:1;"/></g><!--reverse link Pert to Task--><g id="link_Pert_Task"><path codeLine="51" d="M302.5,528.14 C302.5,551.34 302.5,566.42 302.5,592.96 " fill="none" id="Pert-backto-Task" style="stroke:#181818;stroke-width:1;"/><polygon fill="#181818" points="302.5,516.14,298.5,522.14,302.5,528.14,306.5,522.14,302.5,516.14" style="stroke:#181818;stroke-width:1;"/><polygon fill="#000000" points="307.5,559.5664,310.4389,550.5213,304.5611,550.5213,307.5,559.5664" style="stroke:#000000;stroke-width:1;"/><text fill="#000000" font-family="sans-serif" font-size="13" lengthAdjust="spacing" textLength="55.0278" x="316.5" y="559.0669">contains</text><text fill="#000000" font-family="sans-serif" font-size="13" lengthAdjust="spacing" textLength="23.0356" x="278.7608" y="581.7465">1..*</text></g><!--link Task to Task--><g id="link_Task_Task"><path codeLine="52" d="M566.88,692.04 C588.25,697.03 601.5,704.69 601.5,715 C601.5,725.31 594.0928,731.6057 572.7228,736.5957 " fill="none" id="Task-to-Task" style="stroke:#181818;stroke-width:1;"/><polygon fill="#181818" points="566.88,737.96,576.5538,739.8087,571.749,736.8231,574.7347,732.0183,566.88,737.96" style="stroke:#181818;stroke-width:1;"/><text fill="#000000" font-family="sans-serif" font-size="13" lengthAdjust="spacing" textLength="83.6558" x="607.5" y="719.5669">composed of</text><text fill="#000000" font-family="sans-serif" font-size="13" lengthAdjust="spacing" textLength="23.0356" x="574.207" y="688.3054">0..*</text><text fill="#000000" font-family="sans-serif" font-size="13" lengthAdjust="spacing" textLength="23.0356" x="574.207" y="735.4451">0..*</text></g><!--SRC=[bLDDZzCm4BtdLuno8ItnQhb6g-w5YWkWbNPlY8DhpwOMgHtP4n02_Zl-obUxNKHFwRmtyzuyUKJ7dOFFHYByAi3_62ZPW2EhT9iBdFo_mq3e6lZ4-xi4ri3rprsal0LXjAyEWeojvlvDyQSeH5JOotPMS6Qm0fiecql4ROkqAlsdx79elPgtiF71yluu-T0UT8dpvMkkeJVgQy5lhgrbDhd6fGnzLPWnoan8wAx2f3HeOU29ks-pFZ_XMTPoi9oKqGteuNH0ExhYjbFewD7lHLUmlPPdICVfIaz2BZiiZZ6kNFKM9GfqpbYVJTXXoiiDuYNWsfEeLqlN5_lM5nOMiJxCDYhoMabnGNWSpQpWAVm7j3I57nYlULxXeuRWdHX2UFiS-fCweQis3NmtIfwJFiQKNwAqgD4lZkyD1II7xOt6IopVbSogzaYiXDkRcssPpgV9XmDt_w2bn-zfRw0rH3n4C_PoBJFUnU3TKVLmGFg1gED1H4Pukt1_F-g4uOnj8TzF4u8YhhJp6b6pl7sD4dDdGyz-xnASAbl6yknq5ekUNH4huzXT-fXffzuub62U_m80]--></g></svg>