<?xml version="1.0" encoding="us-ascii" standalone="no"?><svg xmlns="http://www.w3.org/2000/svg" xmlns:xlink="http://www.w3.org/1999/xlink" contentStyleType="text/css" height="843px" preserveAspectRatio="none" style="width:528px;height:843px;background:#FFFFFF;" version="1.1" viewBox="0 0 528 843" width="528px" zoomAndPan="magnify"><defs/><g><!--class Node--><g id="elem_Node"><rect codeLine="2" fill="#F1F1F1" height="100.8281" id="Node" rx="2.5" ry="2.5" style="stroke:#181818;stroke-width:0.5;" width="202" x="7" y="15.5"/><ellipse cx="87.25" cy="31.5" fill="#ADD1B2" rx="11" ry="11" style="stroke:#181818;stroke-width:1.0;"/><path d="M90.0156,27.375 Q90.1719,27.1563 90.3594,27.0469 Q90.5469,26.9375 90.7656,26.9375 Q91.1406,26.9375 91.375,27.1953 Q91.6094,27.4531 91.6094,28.0625 L91.6094,29.5156 Q91.6094,30.125 91.375,30.3906 Q91.1406,30.6563 90.7656,30.6563 Q90.4219,30.6563 90.2188,30.4531 Q90.0156,30.2656 89.9063,29.75 Q89.8594,29.3906 89.6719,29.2031 Q89.3438,28.8281 88.7344,28.6094 Q88.125,28.3906 87.5,28.3906 Q86.7344,28.3906 86.1016,28.7188 Q85.4688,29.0469 84.9766,29.7969 Q84.4844,30.5469 84.4844,31.5781 L84.4844,32.6719 Q84.4844,33.9063 85.375,34.7266 Q86.2656,35.5469 87.8594,35.5469 Q88.7969,35.5469 89.4531,35.2969 Q89.8438,35.1406 90.2656,34.7031 Q90.5313,34.4375 90.6797,34.3594 Q90.8281,34.2813 91.0313,34.2813 Q91.3594,34.2813 91.6172,34.5391 Q91.875,34.7969 91.875,35.1406 Q91.875,35.4844 91.5313,35.8906 Q91.0313,36.4688 90.2344,36.7969 Q89.1563,37.25 87.8594,37.25 Q86.3438,37.25 85.1406,36.625 Q84.1563,36.125 83.4688,35.0547 Q82.7813,33.9844 82.7813,32.7031 L82.7813,31.5469 Q82.7813,30.2188 83.3984,29.0703 Q84.0156,27.9219 85.1094,27.3047 Q86.2031,26.6875 87.4375,26.6875 Q88.1719,26.6875 88.8203,26.8516 Q89.4688,27.0156 90.0156,27.375 Z " fill="#000000"/><text fill="#000000" font-family="sans-serif" font-size="14" lengthAdjust="spacing" textLength="33" x="107.75" y="37.2285">Node</text><line style="stroke:#181818;stroke-width:0.5;" x1="8" x2="208" y1="47.5" y2="47.5"/><rect fill="none" height="6" style="stroke:#C82930;stroke-width:1.0;" width="6" x="15" y="58.8047"/><text fill="#000000" font-family="sans-serif" font-size="14" lengthAdjust="spacing" textLength="54" x="27" y="66.0332">id: string</text><rect fill="none" height="6" style="stroke:#C82930;stroke-width:1.0;" width="6" x="15" y="76.4141"/><text fill="#000000" font-family="sans-serif" font-size="14" lengthAdjust="spacing" textLength="176" x="27" y="83.6426">attributes: Map&lt;string, any&gt;</text><line style="stroke:#181818;stroke-width:0.5;" x1="8" x2="208" y1="90.7188" y2="90.7188"/><ellipse cx="18" cy="105.0234" fill="#84BE84" rx="3" ry="3" style="stroke:#038048;stroke-width:1.0;"/><text fill="#000000" font-family="sans-serif" font-size="14" lengthAdjust="spacing" textLength="135" x="27" y="109.252">constructor(id: string)</text></g><!--class Edge--><g id="elem_Edge"><rect codeLine="8" fill="#F1F1F1" height="118.4375" id="Edge" rx="2.5" ry="2.5" style="stroke:#181818;stroke-width:0.5;" width="277" x="244.5" y="7"/><ellipse cx="362.25" cy="23" fill="#ADD1B2" rx="11" ry="11" style="stroke:#181818;stroke-width:1.0;"/><path d="M365.0156,18.875 Q365.1719,18.6563 365.3594,18.5469 Q365.5469,18.4375 365.7656,18.4375 Q366.1406,18.4375 366.375,18.6953 Q366.6094,18.9531 366.6094,19.5625 L366.6094,21.0156 Q366.6094,21.625 366.375,21.8906 Q366.1406,22.1563 365.7656,22.1563 Q365.4219,22.1563 365.2188,21.9531 Q365.0156,21.7656 364.9063,21.25 Q364.8594,20.8906 364.6719,20.7031 Q364.3438,20.3281 363.7344,20.1094 Q363.125,19.8906 362.5,19.8906 Q361.7344,19.8906 361.1016,20.2188 Q360.4688,20.5469 359.9766,21.2969 Q359.4844,22.0469 359.4844,23.0781 L359.4844,24.1719 Q359.4844,25.4063 360.375,26.2266 Q361.2656,27.0469 362.8594,27.0469 Q363.7969,27.0469 364.4531,26.7969 Q364.8438,26.6406 365.2656,26.2031 Q365.5313,25.9375 365.6797,25.8594 Q365.8281,25.7813 366.0313,25.7813 Q366.3594,25.7813 366.6172,26.0391 Q366.875,26.2969 366.875,26.6406 Q366.875,26.9844 366.5313,27.3906 Q366.0313,27.9688 365.2344,28.2969 Q364.1563,28.75 362.8594,28.75 Q361.3438,28.75 360.1406,28.125 Q359.1563,27.625 358.4688,26.5547 Q357.7813,25.4844 357.7813,24.2031 L357.7813,23.0469 Q357.7813,21.7188 358.3984,20.5703 Q359.0156,19.4219 360.1094,18.8047 Q361.2031,18.1875 362.4375,18.1875 Q363.1719,18.1875 363.8203,18.3516 Q364.4688,18.5156 365.0156,18.875 Z " fill="#000000"/><text fill="#000000" font-family="sans-serif" font-size="14" lengthAdjust="spacing" textLength="33" x="382.75" y="28.7285">Edge</text><line style="stroke:#181818;stroke-width:0.5;" x1="245.5" x2="520.5" y1="39" y2="39"/><rect fill="none" height="6" style="stroke:#C82930;stroke-width:1.0;" width="6" x="252.5" y="50.3047"/><text fill="#000000" font-family="sans-serif" font-size="14" lengthAdjust="spacing" textLength="84" x="264.5" y="57.5332">source: Node</text><rect fill="none" height="6" style="stroke:#C82930;stroke-width:1.0;" width="6" x="252.5" y="67.9141"/><text fill="#000000" font-family="sans-serif" font-size="14" lengthAdjust="spacing" textLength="78" x="264.5" y="75.1426">target: Node</text><rect fill="none" height="6" style="stroke:#C82930;stroke-width:1.0;" width="6" x="252.5" y="85.5234"/><text fill="#000000" font-family="sans-serif" font-size="14" lengthAdjust="spacing" textLength="176" x="264.5" y="92.752">attributes: Map&lt;string, any&gt;</text><line style="stroke:#181818;stroke-width:0.5;" x1="245.5" x2="520.5" y1="99.8281" y2="99.8281"/><ellipse cx="255.5" cy="114.1328" fill="#84BE84" rx="3" ry="3" style="stroke:#038048;stroke-width:1.0;"/><text fill="#000000" font-family="sans-serif" font-size="14" lengthAdjust="spacing" textLength="251" x="264.5" y="118.3613">constructor(source: Node, target: Node)</text></g><!--class Graph--><g id="elem_Graph"><rect codeLine="15" fill="#F1F1F1" height="136.0469" id="Graph" rx="2.5" ry="2.5" style="stroke:#181818;stroke-width:0.5;" width="166" x="162" y="185"/><ellipse cx="220.75" cy="201" fill="#ADD1B2" rx="11" ry="11" style="stroke:#181818;stroke-width:1.0;"/><path d="M223.5156,196.875 Q223.6719,196.6563 223.8594,196.5469 Q224.0469,196.4375 224.2656,196.4375 Q224.6406,196.4375 224.875,196.6953 Q225.1094,196.9531 225.1094,197.5625 L225.1094,199.0156 Q225.1094,199.625 224.875,199.8906 Q224.6406,200.1563 224.2656,200.1563 Q223.9219,200.1563 223.7188,199.9531 Q223.5156,199.7656 223.4063,199.25 Q223.3594,198.8906 223.1719,198.7031 Q222.8438,198.3281 222.2344,198.1094 Q221.625,197.8906 221,197.8906 Q220.2344,197.8906 219.6016,198.2188 Q218.9688,198.5469 218.4766,199.2969 Q217.9844,200.0469 217.9844,201.0781 L217.9844,202.1719 Q217.9844,203.4063 218.875,204.2266 Q219.7656,205.0469 221.3594,205.0469 Q222.2969,205.0469 222.9531,204.7969 Q223.3438,204.6406 223.7656,204.2031 Q224.0313,203.9375 224.1797,203.8594 Q224.3281,203.7813 224.5313,203.7813 Q224.8594,203.7813 225.1172,204.0391 Q225.375,204.2969 225.375,204.6406 Q225.375,204.9844 225.0313,205.3906 Q224.5313,205.9688 223.7344,206.2969 Q222.6563,206.75 221.3594,206.75 Q219.8438,206.75 218.6406,206.125 Q217.6563,205.625 216.9688,204.5547 Q216.2813,203.4844 216.2813,202.2031 L216.2813,201.0469 Q216.2813,199.7188 216.8984,198.5703 Q217.5156,197.4219 218.6094,196.8047 Q219.7031,196.1875 220.9375,196.1875 Q221.6719,196.1875 222.3203,196.3516 Q222.9688,196.5156 223.5156,196.875 Z " fill="#000000"/><text fill="#000000" font-family="sans-serif" font-size="14" lengthAdjust="spacing" textLength="40" x="241.25" y="206.7285">Graph</text><line style="stroke:#181818;stroke-width:0.5;" x1="163" x2="327" y1="217" y2="217"/><rect fill="none" height="6" style="stroke:#C82930;stroke-width:1.0;" width="6" x="170" y="228.3047"/><text fill="#000000" font-family="sans-serif" font-size="14" lengthAdjust="spacing" textLength="88" x="182" y="235.5332">nodes: Node[]</text><rect fill="none" height="6" style="stroke:#C82930;stroke-width:1.0;" width="6" x="170" y="245.9141"/><text fill="#000000" font-family="sans-serif" font-size="14" lengthAdjust="spacing" textLength="88" x="182" y="253.1426">edges: Edge[]</text><line style="stroke:#181818;stroke-width:0.5;" x1="163" x2="327" y1="260.2188" y2="260.2188"/><ellipse cx="173" cy="274.5234" fill="#84BE84" rx="3" ry="3" style="stroke:#038048;stroke-width:1.0;"/><text fill="#000000" font-family="sans-serif" font-size="14" lengthAdjust="spacing" textLength="81" x="182" y="278.752">constructor()</text><ellipse cx="173" cy="292.1328" fill="#84BE84" rx="3" ry="3" style="stroke:#038048;stroke-width:1.0;"/><text fill="#000000" font-family="sans-serif" font-size="14" lengthAdjust="spacing" textLength="140" x="182" y="296.3613">addNode(node: Node)</text><ellipse cx="173" cy="309.7422" fill="#84BE84" rx="3" ry="3" style="stroke:#038048;stroke-width:1.0;"/><text fill="#000000" font-family="sans-serif" font-size="14" lengthAdjust="spacing" textLength="140" x="182" y="313.9707">addEdge(edge: Edge)</text></g><!--class Task--><g id="elem_Task"><rect codeLine="23" fill="#F1F1F1" height="259.3125" id="Task" rx="2.5" ry="2.5" style="stroke:#181818;stroke-width:0.5;" width="470" x="10" y="577"/><ellipse cx="225.25" cy="593" fill="#ADD1B2" rx="11" ry="11" style="stroke:#181818;stroke-width:1.0;"/><path d="M228.0156,588.875 Q228.1719,588.6563 228.3594,588.5469 Q228.5469,588.4375 228.7656,588.4375 Q229.1406,588.4375 229.375,588.6953 Q229.6094,588.9531 229.6094,589.5625 L229.6094,591.0156 Q229.6094,591.625 229.375,591.8906 Q229.1406,592.1563 228.7656,592.1563 Q228.4219,592.1563 228.2188,591.9531 Q228.0156,591.7656 227.9063,591.25 Q227.8594,590.8906 227.6719,590.7031 Q227.3438,590.3281 226.7344,590.1094 Q226.125,589.8906 225.5,589.8906 Q224.7344,589.8906 224.1016,590.2188 Q223.4688,590.5469 222.9766,591.2969 Q222.4844,592.0469 222.4844,593.0781 L222.4844,594.1719 Q222.4844,595.4063 223.375,596.2266 Q224.2656,597.0469 225.8594,597.0469 Q226.7969,597.0469 227.4531,596.7969 Q227.8438,596.6406 228.2656,596.2031 Q228.5313,595.9375 228.6797,595.8594 Q228.8281,595.7813 229.0313,595.7813 Q229.3594,595.7813 229.6172,596.0391 Q229.875,596.2969 229.875,596.6406 Q229.875,596.9844 229.5313,597.3906 Q229.0313,597.9688 228.2344,598.2969 Q227.1563,598.75 225.8594,598.75 Q224.3438,598.75 223.1406,598.125 Q222.1563,597.625 221.4688,596.5547 Q220.7813,595.4844 220.7813,594.2031 L220.7813,593.0469 Q220.7813,591.7188 221.3984,590.5703 Q222.0156,589.4219 223.1094,588.8047 Q224.2031,588.1875 225.4375,588.1875 Q226.1719,588.1875 226.8203,588.3516 Q227.4688,588.5156 228.0156,588.875 Z " fill="#000000"/><text fill="#000000" font-family="sans-serif" font-size="14" lengthAdjust="spacing" textLength="31" x="245.75" y="598.7285">Task</text><line style="stroke:#181818;stroke-width:0.5;" x1="11" x2="479" y1="609" y2="609"/><rect fill="none" height="6" style="stroke:#C82930;stroke-width:1.0;" width="6" x="18" y="620.3047"/><text fill="#000000" font-family="sans-serif" font-size="14" lengthAdjust="spacing" textLength="78" x="30" y="627.5332">name: string</text><rect fill="none" height="6" style="stroke:#C82930;stroke-width:1.0;" width="6" x="18" y="637.9141"/><text fill="#000000" font-family="sans-serif" font-size="14" lengthAdjust="spacing" textLength="108" x="30" y="645.1426">duration: number</text><rect fill="none" height="6" style="stroke:#C82930;stroke-width:1.0;" width="6" x="18" y="655.5234"/><text fill="#000000" font-family="sans-serif" font-size="14" lengthAdjust="spacing" textLength="132" x="30" y="662.752">earliestStart: number</text><rect fill="none" height="6" style="stroke:#C82930;stroke-width:1.0;" width="6" x="18" y="673.1328"/><text fill="#000000" font-family="sans-serif" font-size="14" lengthAdjust="spacing" textLength="127" x="30" y="680.3613">earliestEnd: number</text><rect fill="none" height="6" style="stroke:#C82930;stroke-width:1.0;" width="6" x="18" y="690.7422"/><text fill="#000000" font-family="sans-serif" font-size="14" lengthAdjust="spacing" textLength="120" x="30" y="697.9707">latestStart: number</text><rect fill="none" height="6" style="stroke:#C82930;stroke-width:1.0;" width="6" x="18" y="708.3516"/><text fill="#000000" font-family="sans-serif" font-size="14" lengthAdjust="spacing" textLength="115" x="30" y="715.5801">latestEnd: number</text><rect fill="none" height="6" style="stroke:#C82930;stroke-width:1.0;" width="6" x="18" y="725.9609"/><text fill="#000000" font-family="sans-serif" font-size="14" lengthAdjust="spacing" textLength="99" x="30" y="733.1895">resource: string</text><rect fill="none" height="6" style="stroke:#C82930;stroke-width:1.0;" width="6" x="18" y="743.5703"/><text fill="#000000" font-family="sans-serif" font-size="14" lengthAdjust="spacing" textLength="133" x="30" y="750.7988">predecessors: Task[]</text><rect fill="none" height="6" style="stroke:#C82930;stroke-width:1.0;" width="6" x="18" y="761.1797"/><text fill="#000000" font-family="sans-serif" font-size="14" lengthAdjust="spacing" textLength="118" x="30" y="768.4082">successors: Task[]</text><line style="stroke:#181818;stroke-width:0.5;" x1="11" x2="479" y1="775.4844" y2="775.4844"/><ellipse cx="21" cy="789.7891" fill="#84BE84" rx="3" ry="3" style="stroke:#038048;stroke-width:1.0;"/><text fill="#000000" font-family="sans-serif" font-size="14" lengthAdjust="spacing" textLength="444" x="30" y="794.0176">constructor(id: string, name: string, duration: number, resource: string)</text><ellipse cx="21" cy="807.3984" fill="#84BE84" rx="3" ry="3" style="stroke:#038048;stroke-width:1.0;"/><text fill="#000000" font-family="sans-serif" font-size="14" lengthAdjust="spacing" textLength="179" x="30" y="811.627">addPredecessor(task: Task)</text><ellipse cx="21" cy="825.0078" fill="#84BE84" rx="3" ry="3" style="stroke:#038048;stroke-width:1.0;"/><text fill="#000000" font-family="sans-serif" font-size="14" lengthAdjust="spacing" textLength="165" x="30" y="829.2363">addSuccessor(task: Task)</text></g><!--class Pert--><g id="elem_Pert"><rect codeLine="38" fill="#F1F1F1" height="136.0469" id="Pert" rx="2.5" ry="2.5" style="stroke:#181818;stroke-width:0.5;" width="211" x="139.5" y="381"/><ellipse cx="227.75" cy="397" fill="#ADD1B2" rx="11" ry="11" style="stroke:#181818;stroke-width:1.0;"/><path d="M230.5156,392.875 Q230.6719,392.6563 230.8594,392.5469 Q231.0469,392.4375 231.2656,392.4375 Q231.6406,392.4375 231.875,392.6953 Q232.1094,392.9531 232.1094,393.5625 L232.1094,395.0156 Q232.1094,395.625 231.875,395.8906 Q231.6406,396.1563 231.2656,396.1563 Q230.9219,396.1563 230.7188,395.9531 Q230.5156,395.7656 230.4063,395.25 Q230.3594,394.8906 230.1719,394.7031 Q229.8438,394.3281 229.2344,394.1094 Q228.625,393.8906 228,393.8906 Q227.2344,393.8906 226.6016,394.2188 Q225.9688,394.5469 225.4766,395.2969 Q224.9844,396.0469 224.9844,397.0781 L224.9844,398.1719 Q224.9844,399.4063 225.875,400.2266 Q226.7656,401.0469 228.3594,401.0469 Q229.2969,401.0469 229.9531,400.7969 Q230.3438,400.6406 230.7656,400.2031 Q231.0313,399.9375 231.1797,399.8594 Q231.3281,399.7813 231.5313,399.7813 Q231.8594,399.7813 232.1172,400.0391 Q232.375,400.2969 232.375,400.6406 Q232.375,400.9844 232.0313,401.3906 Q231.5313,401.9688 230.7344,402.2969 Q229.6563,402.75 228.3594,402.75 Q226.8438,402.75 225.6406,402.125 Q224.6563,401.625 223.9688,400.5547 Q223.2813,399.4844 223.2813,398.2031 L223.2813,397.0469 Q223.2813,395.7188 223.8984,394.5703 Q224.5156,393.4219 225.6094,392.8047 Q226.7031,392.1875 227.9375,392.1875 Q228.6719,392.1875 229.3203,392.3516 Q229.9688,392.5156 230.5156,392.875 Z " fill="#000000"/><text fill="#000000" font-family="sans-serif" font-size="14" lengthAdjust="spacing" textLength="26" x="248.25" y="402.7285">Pert</text><line style="stroke:#181818;stroke-width:0.5;" x1="140.5" x2="349.5" y1="413" y2="413"/><rect fill="none" height="6" style="stroke:#C82930;stroke-width:1.0;" width="6" x="147.5" y="424.3047"/><text fill="#000000" font-family="sans-serif" font-size="14" lengthAdjust="spacing" textLength="80" x="159.5" y="431.5332">tasks: Task[]</text><line style="stroke:#181818;stroke-width:0.5;" x1="140.5" x2="349.5" y1="438.6094" y2="438.6094"/><ellipse cx="150.5" cy="452.9141" fill="#84BE84" rx="3" ry="3" style="stroke:#038048;stroke-width:1.0;"/><text fill="#000000" font-family="sans-serif" font-size="14" lengthAdjust="spacing" textLength="161" x="159.5" y="457.1426">constructor(tasks: Task[])</text><ellipse cx="150.5" cy="470.5234" fill="#84BE84" rx="3" ry="3" style="stroke:#038048;stroke-width:1.0;"/><text fill="#000000" font-family="sans-serif" font-size="14" lengthAdjust="spacing" textLength="185" x="159.5" y="474.752">calculateEarliestTimes(): void</text><ellipse cx="150.5" cy="488.1328" fill="#84BE84" rx="3" ry="3" style="stroke:#038048;stroke-width:1.0;"/><text fill="#000000" font-family="sans-serif" font-size="14" lengthAdjust="spacing" textLength="177" x="159.5" y="492.3613">calculateLatestTimes(): void</text><ellipse cx="150.5" cy="505.7422" fill="#84BE84" rx="3" ry="3" style="stroke:#038048;stroke-width:1.0;"/><text fill="#000000" font-family="sans-serif" font-size="14" lengthAdjust="spacing" textLength="132" x="159.5" y="509.9707">generateDot(): string</text></g><!--link Node to Edge--><g id="link_Node_Edge"><path codeLine="46" d="M209.25,66 C220.9,66 232.55,66 244.2,66 " fill="none" id="Node-Edge" style="stroke:#181818;stroke-width:1.0;"/></g><!--link Node to Graph--><g id="link_Node_Graph"><path codeLine="47" d="M144.71,116.58 C160.25,137.55 171.4496,152.6756 188.1596,175.2456 " fill="none" id="Node-to-Graph" style="stroke:#181818;stroke-width:1.0;"/><polygon fill="#181818" points="195.3,184.89,194.9446,177.6877,188.1596,175.2456,188.515,182.4479,195.3,184.89" style="stroke:#181818;stroke-width:1.0;"/></g><!--link Edge to Graph--><g id="link_Edge_Graph"><path codeLine="48" d="M339.71,125.03 C325.57,144 316.904,155.6006 302.294,175.1906 " fill="none" id="Edge-to-Graph" style="stroke:#181818;stroke-width:1.0;"/><polygon fill="#181818" points="295.12,184.81,301.9135,182.3916,302.294,175.1906,295.5006,177.6089,295.12,184.81" style="stroke:#181818;stroke-width:1.0;"/></g><!--link Graph to Pert--><g id="link_Graph_Pert"><path codeLine="49" d="M245,321.04 C245,340.42 245,343.58 245,362.96 " fill="none" id="Graph-to-Pert" style="stroke:#181818;stroke-width:1.0;"/><polygon fill="none" points="245,380.96,251,362.96,239,362.96,245,380.96" style="stroke:#181818;stroke-width:1.0;"/></g><!--link Pert to Task--><g id="link_Pert_Task"><path codeLine="50" d="M245,517.13 C245,535.46 245,543.97 245,564.51 " fill="none" id="Pert-to-Task" style="stroke:#181818;stroke-width:1.0;"/><polygon fill="#181818" points="245,576.51,249,570.51,245,564.51,241,570.51,245,576.51" style="stroke:#181818;stroke-width:1.0;"/></g><!--SRC=[bLFBJiCm4BpdAtnC8Vc1gE94nGLGfVQ6E6pjLR18xSXU8o7Wtx4Tv-4-aF3DCxixioERTs0jUzO2sLV1_AcP50spPAHg4m3aRmT7Q1ls1Frw82i6wlCkbjmohfL77ITjohb_LVmK1OyA6z7E2bOxmx69iWaYC2rI1lrJTZcqokOjR3mOwDyc7ygJTgXvUKqOUgCU2tuJbiki4WP2XBuop1Xb9YPqbs7IC6XXO0_sVTQ78vvaBPm1aberJBdZ0Ste2amdqTBExqLNk8qI9qm7TALdOCux38unPgvwWm8vMgkDpoRiCELb7Rz4N7iILRPqTRPlTMPX4Ujsjb6IrneK5mMxqKn6J-5lqT0KVgZuotF6ZneSEkv2U9iK-buUqPQhXdreAKwB7cFAbqfQLEWNntjDWKbXUwFn9zP6jczKnxUJaFfcUBj5_4ZpDQwq_gvTNo-HK12S5xy0]--></g></svg>